<?xml version="1.0" encoding="UTF-8" standalone="no"?>
<svg
   xmlns:dc="http://purl.org/dc/elements/1.1/"
   xmlns:cc="http://creativecommons.org/ns#"
   xmlns:rdf="http://www.w3.org/1999/02/22-rdf-syntax-ns#"
   xmlns:svg="http://www.w3.org/2000/svg"
   xmlns="http://www.w3.org/2000/svg"
   xmlns:sodipodi="http://sodipodi.sourceforge.net/DTD/sodipodi-0.dtd"
   xmlns:inkscape="http://www.inkscape.org/namespaces/inkscape"
   width="210mm"
   height="297mm"
   viewBox="0 0 210 297"
   version="1.1"
   id="svg8"
   inkscape:version="1.0.1 (3bc2e813f5, 2020-09-07)"
   sodipodi:docname="hat.svg">
  <defs
     id="defs2" />
  <sodipodi:namedview
     id="base"
     pagecolor="#19ffff"
     bordercolor="#666666"
     borderopacity="1.0"
     inkscape:pageopacity="0"
     inkscape:pageshadow="2"
     inkscape:zoom="0.7"
     inkscape:cx="35.796057"
     inkscape:cy="916.3298"
     inkscape:document-units="mm"
     inkscape:current-layer="layer1"
     inkscape:document-rotation="0"
     showgrid="false"
     inkscape:window-width="1647"
     inkscape:window-height="1011"
     inkscape:window-x="1998"
     inkscape:window-y="30"
     inkscape:window-maximized="0" />
  <metadata
     id="metadata5">
    <rdf:RDF>
      <cc:Work
         rdf:about="">
        <dc:format>image/svg+xml</dc:format>
        <dc:type
           rdf:resource="http://purl.org/dc/dcmitype/StillImage" />
        <dc:title></dc:title>
      </cc:Work>
    </rdf:RDF>
  </metadata>
  <g
     inkscape:label="Layer 1"
     inkscape:groupmode="layer"
     id="layer1">
    <path
       style="fill:#e3e3e3;stroke-width:0.165365"
       d="m 94.383422,270.82687 c 0.140224,-0.0243 0.350306,-0.25102 0.466827,-0.50376 0.297754,-0.64582 0.691318,-0.82035 1.138445,-0.50487 0.426918,0.30122 0.747424,0.86161 0.64241,1.1232 -0.162456,0.40468 0.286211,0.91676 1.08375,1.23693 1.73253,0.69551 4.085836,-0.13872 5.267776,-1.8674 0.62484,-0.91388 1.18229,-2.17611 1.21342,-2.74752 0.0227,-0.41614 0.14262,-0.63233 0.58645,-1.05698 1.00062,-0.95737 1.10823,-2.40136 0.26581,-3.56665 -0.69705,-0.96421 -0.7059,-1.11999 -0.11652,-2.05063 0.74146,-1.17078 2.28253,-5.10348 2.91982,-7.45114 0.75364,-2.77628 1.46925,-6.18648 2.14136,-10.20453 1.00193,-5.98983 2.15421,-10.75212 2.95915,-12.22995 0.31861,-0.58496 0.38299,-0.84267 0.27414,-1.09753 -0.12843,-0.3007 -0.0854,-0.34785 0.44243,-0.48539 1.03988,-0.27095 4.50331,-0.48611 6.1548,-0.38236 4.38981,0.27577 8.68827,1.58822 14.96065,4.56793 4.17519,1.98344 5.18831,2.62069 9.0892,5.71705 0.14203,0.11273 0.0877,0.33848 -0.22402,0.93054 -0.45492,0.86409 -0.58758,1.47041 -0.16302,1.47692 0.21573,0.003 0.34037,0.22208 0.62585,-0.51905 0.39925,-1.03649 0.88436,-1.90615 1.5623,-1.634 0.62602,0.25131 0.8987,-0.0647 0.98147,-1.13737 0.0414,-0.53701 0.15487,-0.99281 0.2566,-1.03109 0.10029,-0.0378 0.57376,-0.0449 1.05218,-0.016 0.93111,0.0563 1.88459,-0.20426 2.59334,-0.70862 0.42259,-0.30072 0.43567,-0.33889 0.36403,-1.06215 -0.14416,-1.45529 0.48532,-2.26155 2.61781,-3.353 0.66891,-0.34237 1.43698,-0.80658 1.70682,-1.03159 0.35651,-0.29728 0.74929,-0.41199 1.43694,-0.41967 0.96286,-0.0108 2.03523,-0.4357 2.88253,-1.14224 0.25347,-0.21136 0.73358,-0.41275 1.06691,-0.44754 0.33335,-0.0348 1.02588,-0.23874 1.53899,-0.45322 1.0505,-0.43909 1.19838,-0.38187 1.98494,0.76797 0.25845,0.37782 0.67141,0.90499 0.9177,1.1715 0.24628,0.26652 0.66658,0.92982 0.93398,1.474 0.39265,0.79906 0.59422,1.53999 0.75018,1.37197 0.1062,-0.11443 0.91257,0.1666 0.46525,-0.47825 -0.13785,-0.42891 -1.98482,-3.0666 -2.44524,-3.48954 -0.19951,-0.18332 -0.47071,-0.57022 -0.60263,-0.85985 -0.21221,-0.46594 -0.33682,-0.55283 -1.08124,-0.75395 -0.71129,-0.19212 -0.87815,-0.17666 -1.07904,0.10023 -0.1387,0.19117 -0.72612,0.44189 -1.41084,0.60219 -0.64526,0.15104 -1.35087,0.4279 -1.56803,0.61523 -0.48583,0.4191 -0.71818,0.33817 -1.09446,-0.38128 -0.16057,-0.30702 -0.36481,-0.69868 -0.45387,-0.87036 -0.0891,-0.17168 -0.32723,-0.52715 -0.52929,-0.78995 -0.20205,-0.26279 -0.3475,-0.52732 -0.3232,-0.58783 0.0243,-0.0605 -0.0611,-0.19732 -0.1898,-0.304 -0.12867,-0.10671 -0.36515,-0.44756 -0.52548,-0.75752 -0.16032,-0.30997 -0.33251,-0.58014 -0.38265,-0.60039 -0.0501,-0.0202 -0.22252,-0.28992 -0.38309,-0.59927 -0.16057,-0.30936 -0.33298,-0.579 -0.38313,-0.59921 -0.0502,-0.0202 -0.27223,-0.3847 -0.49353,-0.80999 -0.22129,-0.42528 -0.53588,-1.01259 -0.69909,-1.30511 -0.16321,-0.29254 -0.54671,-1.07324 -0.85222,-1.73491 -0.6513,-1.41062 -0.9442,-1.96183 -2.48136,-4.66962 -0.63149,-1.11241 -1.16708,-2.07532 -1.1902,-2.1398 -0.0231,-0.0645 -0.2421,-0.41784 -0.48663,-0.78524 -0.24453,-0.3674 -0.58574,-0.94518 -0.75825,-1.28396 -0.1725,-0.33878 -0.42569,-0.78121 -0.56264,-0.9832 -0.13694,-0.20199 -0.29913,-0.46756 -0.36041,-0.59016 -0.0613,-0.12256 -0.31192,-0.52244 -0.55698,-0.88852 -0.24507,-0.36607 -0.56616,-0.8959 -0.71354,-1.1774 -0.14738,-0.28151 -0.37737,-0.67602 -0.51108,-0.87671 -0.13372,-0.20068 -0.32677,-0.51874 -0.429,-0.70679 -0.10224,-0.18806 -0.29732,-0.50693 -0.43352,-0.70861 -0.13619,-0.20168 -0.29868,-0.46739 -0.36109,-0.59044 -0.0624,-0.12311 -0.36178,-0.60124 -0.66529,-1.06261 -0.3035,-0.46138 -0.60704,-0.94407 -0.67452,-1.07265 -0.27292,-0.51997 -0.40748,-0.73248 -0.79442,-1.2546 -0.2225,-0.30023 -0.49393,-0.7274 -0.60319,-0.94926 -0.10925,-0.22186 -0.4467,-0.7795 -0.74988,-1.23918 -0.30318,-0.45968 -0.57047,-0.88773 -0.59399,-0.95122 -0.0235,-0.0635 -0.29244,-0.49219 -0.5976,-0.95268 -0.30517,-0.46048 -0.5741,-0.88919 -0.59761,-0.95268 -0.0235,-0.0635 -0.292,-0.49329 -0.59663,-0.95512 -0.30463,-0.46183 -0.60909,-0.94489 -0.67658,-1.07347 -0.27291,-0.51997 -0.40747,-0.73248 -0.79442,-1.2546 -0.22249,-0.30023 -0.49141,-0.72894 -0.5976,-0.9527 -0.10618,-0.22375 -0.37435,-0.65433 -0.59593,-0.95683 -0.22158,-0.30251 -0.53313,-0.80591 -0.69233,-1.11868 -0.15921,-0.31275 -0.33048,-0.58522 -0.38062,-0.60546 -0.0501,-0.0202 -0.22959,-0.29119 -0.3988,-0.60208 -0.4344,-0.79814 -0.47878,-0.87082 -0.85738,-1.40374 -0.18623,-0.26215 -0.38592,-0.56368 -0.44376,-0.67008 -0.0578,-0.10641 -0.21618,-0.39691 -0.35186,-0.64557 -0.13569,-0.24867 -0.28789,-0.46875 -0.33824,-0.48908 -0.0504,-0.0203 -0.22291,-0.29007 -0.38348,-0.59943 -0.16057,-0.30936 -0.33724,-0.58065 -0.3926,-0.60287 -0.0554,-0.0222 -0.18591,-0.21527 -0.2901,-0.42898 -0.21483,-0.4406 -3.2585,-4.79729 -4.57622,-6.55034 -5.38439,-7.16325 -12.99366,-14.60521 -19.57371,-19.14335 -1.49524,-1.03125 -1.78683,-1.17096 -5.18939,-2.48641 l -3.605124,-1.39381 -4.002219,0.35344 c -3.925122,0.34663 -6.312587,0.72346 -7.56544,1.19413 -0.346239,0.13006 -0.671352,0.22006 -0.722484,0.19998 -0.0511,-0.0201 -0.364571,0.0616 -0.696529,0.18148 -0.331951,0.11989 -0.976728,0.34856 -1.432817,0.50816 -1.555352,0.54424 -4.100269,1.53028 -5.652504,2.19008 -1.373431,0.58379 -2.338796,1.02817 -6.822609,3.14059 -1.023346,0.48212 -1.954348,0.94005 -3.885604,1.9112 -0.429785,0.21613 -1.132461,0.56828 -1.561508,0.78256 -0.429038,0.21429 -1.038393,0.53371 -1.354099,0.70982 -0.31572,0.17612 -0.800601,0.4419 -1.077516,0.59064 -0.40753,0.21888 -1.545476,0.86132 -2.887189,1.62999 -0.100626,0.0577 -0.386331,0.21579 -0.634998,0.35146 -0.248671,0.13569 -0.469769,0.28749 -0.491353,0.33734 -0.02116,0.05 -0.339149,0.2417 -0.705723,0.42633 -0.366574,0.18464 -0.685234,0.38239 -0.708138,0.43944 -0.02291,0.0571 -0.218642,0.18812 -0.434979,0.29126 -0.323563,0.15426 -4.03441,2.68496 -6.322057,4.31148 -1.640216,1.16619 -4.764631,3.72039 -8.332596,6.81186 -2.202977,1.90878 -5.661771,4.73005 -7.686186,6.26949 -6.441618,4.89841 -7.917551,6.29473 -9.749168,9.22328 -1.741868,2.78506 -1.957523,3.06927 -2.309013,3.04306 -0.177379,-0.0132 -0.429237,-0.17016 -0.559672,-0.34878 -0.189659,-0.25968 -0.313549,-0.3111 -0.61838,-0.25686 -0.209698,0.0374 -0.472816,0.0312 -0.584716,-0.0137 -0.404836,-0.16252 -1.708367,0.0274 -2.280535,0.33222 -0.941518,0.50163 -1.987946,1.50244 -2.8212,2.69818 -0.956958,1.37327 -1.132327,1.77283 -0.831141,1.89374 0.258517,0.10378 0.240692,0.12443 0.687316,-0.7953 0.475587,-0.97934 2.218722,-2.79361 3.095572,-3.22188 1.236793,-0.60406 2.813162,-0.48015 3.564467,0.28018 0.127412,0.12895 0.422856,0.22374 0.663002,0.21271 0.518022,-0.0237 1.82333,0.71914 2.363143,1.34491 0.755114,0.87533 0.981888,2.27215 0.613712,3.78021 -0.172211,0.70537 -0.154142,0.88664 0.103229,1.03534 0.223156,0.12891 0.419998,0.0811 0.691334,-0.16795 0.471405,-0.4327 1.284867,-0.40745 2.520466,0.0783 1.615577,0.63509 4.378431,2.64666 4.203899,3.06081 -0.02548,0.0608 -0.349993,0.16971 -0.720909,0.24223 -0.687395,0.13438 -1.123561,0.66102 -0.691209,0.83458 0.125662,0.0504 0.784367,0.1574 1.463775,0.23765 1.547996,0.18288 3.587049,0.72083 5.225679,1.37865 1.051365,0.42207 1.408065,0.49091 2.137513,0.41262 0.999515,-0.1073 2.297697,0.32811 3.522024,1.18129 0.689835,0.4807 0.738617,0.49127 1.142595,0.24758 0.397411,-0.23973 0.437405,-0.23202 0.686522,0.13244 0.145486,0.21285 0.599449,1.05077 1.008801,1.86207 0.834075,1.65301 1.510666,2.49821 2.23151,2.78759 0.399667,0.16044 0.598348,0.11471 1.110651,-0.25564 l 0.623921,-0.45105 1.314376,0.62193 c 1.033919,0.4892 1.800899,0.71866 3.594373,1.07532 1.253999,0.24934 2.581228,0.57428 2.949399,0.72208 0.64173,0.25762 1.038734,0.74374 0.896577,1.09786 -0.133752,0.33317 0.355769,1.93702 0.777649,2.54784 1.091884,1.58089 2.60186,2.12448 3.948603,1.42147 0.501799,-0.26195 0.819946,-0.33202 0.921957,-0.20306 0.08566,0.10831 0.57023,0.8623 1.076804,1.67555 1.527121,2.45159 2.076471,2.89941 2.943879,2.39986 0.264211,-0.15217 0.521375,-0.37878 0.571479,-0.50359 0.07327,-0.18251 0.225855,-0.14998 0.779685,0.16622 1.165594,0.66545 2.325561,2.13988 3.687075,4.68661 1.354835,2.53424 2.453163,4.11704 3.012764,4.34169 0.270052,0.10841 0.430148,0.0216 0.753889,-0.40894 0.569142,-0.75682 1.257677,-0.80618 2.753182,-0.19736 1.462389,0.59569 2.332099,1.43547 2.80788,2.71262 0.259056,0.69541 0.45639,0.9684 0.799644,1.10619 0.61154,0.2455 1.429754,-0.20434 2.096496,-1.15261 0.774037,-1.10087 1.389624,-1.70145 1.7054,-1.66383 0.595801,0.071 2.288766,0.85406 2.578039,1.19247 0.418443,0.4895 0.703219,1.29663 1.061111,3.00742 0.371935,1.77791 1.009641,3.16729 1.692623,3.68773 0.283443,0.21605 1.052316,0.55966 1.727069,0.77188 2.169878,0.68264 2.668414,1.47712 2.9359,4.67875 0.166913,1.99782 0.146826,2.20338 -0.201631,2.06349 -0.126606,-0.0508 -0.276525,0.023 -0.333152,0.16407 -0.05663,0.14105 -0.275011,0.34032 -0.485293,0.4428 -0.412684,0.20112 -0.865064,1.13729 -0.936471,1.93796 -0.03639,0.40804 -0.101683,0.46939 -0.491919,0.46221 -0.718662,-0.0133 -1.038993,0.37501 -1.527247,1.85111 -0.389033,1.17611 -0.462551,1.30398 -0.661175,1.1498 -2.363394,-1.83455 -3.502453,-2.45145 -4.198644,-2.27397 -0.339925,0.0867 -0.391176,0.17534 -0.468336,0.81035 l -0.08664,0.71303 -0.443144,-0.28922 c -0.243737,-0.15906 -1.032959,-0.92517 -1.753845,-1.70242 -1.414489,-1.52513 -2.063405,-1.91498 -3.03287,-1.82212 -0.67277,0.0644 -0.722724,-0.0313 -0.591329,-1.13366 0.148146,-1.24284 -0.474628,-2.65913 -1.532542,-3.48523 -0.911137,-0.71149 -1.819107,-0.97772 -4.22649,-1.23926 -0.998854,-0.10852 -1.728461,-0.31737 -3.316384,-0.94931 -1.987821,-0.79153 -2.394359,-0.84537 -1.898001,-0.25325 0.346157,0.41294 0.133622,0.49085 -0.916805,0.33606 l -0.917429,-0.13519 -0.936625,-1.14842 c -2.610198,-3.20048 -4.188373,-4.85674 -5.497409,-5.76939 -2.335793,-1.62853 -4.628717,-2.08097 -6.640008,-1.31024 l -1.00653,0.38571 0.239576,0.45513 c 0.13177,0.25032 0.490325,0.60554 0.796807,0.78939 0.306484,0.18381 0.533598,0.39308 0.504737,0.46498 -0.07341,0.18285 -1.387777,0.28223 -2.547351,0.1926 -1.321727,-0.10216 -3.673748,-1.08972 -4.326994,-1.81679 -0.481116,-0.5355 -0.731087,-0.57939 -0.737998,-0.12959 -0.0061,0.39479 1.423776,1.44786 2.567806,1.8912 1.673738,0.64864 3.981286,0.83534 5.45829,0.44168 0.343143,-0.0915 0.648369,-0.10897 0.678286,-0.0389 0.02994,0.0701 0.253179,0.0878 0.496133,0.0396 0.533464,-0.10603 1.477275,0.28404 1.705097,0.70466 0.09085,0.16776 0.322007,0.32488 0.513691,0.34916 0.707756,0.0896 3.776643,2.76755 3.884607,3.38972 0.01908,0.11003 -0.08812,0.19805 -0.237815,0.19583 -0.256403,-0.004 -1.056037,0.59412 -1.168304,0.87377 -0.09407,0.23433 0.884288,1.05758 1.349158,1.13525 0.550644,0.092 1.505153,0.82459 1.670581,1.28217 0.06617,0.18304 0.07634,0.51049 0.02259,0.72767 -0.0791,0.31969 0.14518,0.67387 1.177915,1.86005 0.701612,0.80585 1.34498,1.60015 1.429713,1.76512 0.574791,1.11898 2.828267,2.32923 4.133916,2.22015 0.576,-0.0481 0.723828,-0.14404 1.008507,-0.65438 1.212371,-2.17344 1.732331,-2.34096 2.325715,-0.74932 1.001032,2.68504 1.438483,3.33789 2.09519,3.12682 0.235408,-0.0757 0.385456,-0.0181 0.66471,0.2551 0.255116,0.24959 0.555069,0.3793 1.025007,0.44327 0.606764,0.0826 2.701314,0.20516 3.405978,0.19931 0.220104,-0.002 0.305645,0.20007 0.348759,0.82338 0.07313,1.05683 0.301657,1.8348 0.570694,1.94281 0.116284,0.0467 0.227735,0.20398 0.247668,0.34956 0.0363,0.26509 2.511393,3.96549 2.70418,4.04289 0.05632,0.0226 0.195277,0.27886 0.3088,0.56945 0.113527,0.29059 0.248537,0.54526 0.300031,0.56593 0.05149,0.0207 0.314261,-0.13445 0.583929,-0.34471 0.269668,-0.21027 0.574441,-0.40004 0.677274,-0.42173 0.268374,-0.0566 0.917348,0.62704 1.8529,1.95188 0.84779,1.20054 1.544824,1.81185 1.979854,1.73636 z M 65.089051,247.86504 c 0.08933,-0.22251 0.707334,-0.0542 0.703566,0.1916 -0.002,0.12924 -0.131346,0.21471 -0.287483,0.18993 -0.32754,-0.052 -0.489124,-0.19959 -0.416083,-0.38153 z m -14.51537,-8.67371 c 0.03107,-0.0774 0.04773,-0.51839 0.03702,-0.97997 -0.01071,-0.46158 0.03485,-0.97457 0.101263,-1.14 0.159465,-0.39723 -0.561991,-2.2317 -1.111553,-2.82639 -0.658352,-0.71242 -1.402194,-1.121 -1.517576,-0.83358 -0.05653,0.14081 0.08848,0.35105 0.36606,0.53073 0.882877,0.57149 1.632881,1.68707 1.722194,2.56161 0.04598,0.4504 0.03164,0.94838 -0.03189,1.10662 -0.198251,0.49384 0.268562,2.40012 0.517929,2.50023 0.130915,0.0526 -0.114542,-0.84177 -0.08345,-0.91927 z m -5.412883,-6.04705 c 0.379664,-0.0913 0.895532,-0.12792 1.146371,-0.0814 0.255041,0.0473 1.678121,0.40802 1.730002,0.27875 0.128551,-0.32022 -2.120175,-0.97693 -2.849331,-0.78695 -0.678481,0.17678 -0.854305,0.10688 -1.279199,-0.50814 -0.380763,-0.55171 -1.305091,-1.13787 -1.327504,-0.79848 -0.0079,0.11932 0.431064,0.60996 0.657823,0.80152 0.226765,0.19157 0.496063,0.5202 0.598446,0.73028 0.242948,0.49852 0.487179,0.56584 1.323231,0.3648 z m -8.346214,-3.09964 c 0.153883,-0.0607 0.48987,-0.0345 0.746625,0.0583 1.267739,0.45828 3.73753,0.61342 3.911172,0.40871 0.17301,-0.20388 -0.943194,-0.38746 -1.318255,-0.35264 -0.170767,0.0158 -0.386408,-0.0385 -0.479204,-0.12072 -0.09276,-0.0823 -0.286843,-0.11191 -0.431583,-0.0651 -0.481196,0.15466 -3.539094,-0.857 -4.175755,-1.38147 -0.24763,-0.20393 -0.244736,-0.30912 0.01976,-0.72432 0.381027,-0.59815 0.04946,-0.84115 -0.470873,-0.3451 -0.487686,0.46494 -0.542995,0.71336 -0.241754,1.0858 0.788236,0.97455 1.920774,1.64137 2.439855,1.43653 z m 5.727579,1.189 c 0.125053,-0.3115 -0.52045,-0.74716 -1.069782,-0.72199 -0.642924,0.0294 -0.499387,0.35594 0.297034,0.67566 0.499587,0.20056 0.705879,0.2129 0.772748,0.0463 z m -6.830201,-4.75001 c 0.130579,-0.34406 -0.361489,-1.37308 -0.611227,-1.47334 -0.122034,-0.049 0.140394,0.46182 0.14218,0.66137 0.0015,0.1721 -0.01102,0.44774 -0.02784,0.6125 -0.01679,0.16477 -0.313036,1.18835 -0.196272,1.23522 0.116754,0.0469 0.636582,-0.88695 0.693195,-1.03573 z m -4.612658,-2.86815 c 0.09632,-0.10384 0.539234,-0.21395 0.984154,-0.24474 0.794948,-0.055 1.01641,-0.29678 0.472047,-0.51531 -0.152046,-0.061 -0.602276,-0.04 -1.000509,0.0467 l -0.72406,0.15772 -0.375737,-0.68832 c -0.206656,-0.37858 -1.092296,-1.67901 -1.159632,-1.70604 -0.23772,-0.0954 0.646958,2.00869 0.962676,2.50097 0.377072,0.58793 0.601087,0.70751 0.841061,0.44897 z m 4.164227,1.33605 c 0.04533,-0.11291 -0.226599,-0.54802 -0.604272,-0.9669 -0.54093,-0.59995 -1.622395,-1.04891 -1.851178,-0.97538 -0.414499,0.13322 0.554099,0.65619 1.200022,1.05143 0.309773,0.18955 0.605304,0.47553 0.656721,0.63552 0.11814,0.36757 0.489987,0.52615 0.598707,0.25533 z m -5.758064,-4.29945 c 0.09878,-0.24606 -0.687373,-1.61351 -0.999677,-1.73889 -0.103604,-0.0416 -0.232765,-0.21372 -0.287012,-0.3825 -0.150996,-0.4698 -0.729766,-0.61409 -1.75677,-0.43797 -0.513172,0.088 -1.037758,0.11798 -1.16575,0.0666 -0.22186,-0.0891 -3.109897,-2.62529 -5.040911,-4.42684 -1.594396,-1.48749 -1.575159,-1.47759 -2.344029,-1.20667 -0.877159,0.30908 -1.856728,0.1057 -2.372916,-0.49266 -0.473041,-0.54837 -0.838691,-1.43433 -0.960085,-1.13194 -0.126729,0.31568 0.800286,1.85087 1.582035,2.1647 0.694451,0.27878 1.41072,0.26145 2.048908,-0.0496 0.257757,-0.12562 0.465728,-0.12815 0.536776,-0.007 0.148372,0.25398 4.369897,4.10994 5.66292,5.17254 0.915804,0.75261 0.999992,0.79376 1.235259,0.60396 0.387717,-0.31279 0.963762,-0.3175 1.869068,-0.0153 0.606638,0.20248 0.824274,0.34297 0.821421,0.52995 -0.0022,0.13992 0.07465,0.28597 0.170651,0.32451 0.096,0.0385 0.241051,0.29723 0.322325,0.57487 0.16374,0.55941 0.535239,0.8068 0.677891,0.45146 z M 14.79731,211.12696 c 0.02753,-0.0686 0.02668,-0.46595 -0.0019,-0.88311 -0.02855,-0.41715 0.0049,-0.89991 0.07429,-1.0728 0.0694,-0.17288 0.598251,-0.93353 0.511251,-0.96845 -0.2345,-0.0941 -1.135735,0.94308 -0.951232,1.09959 0.0867,0.0736 0.08928,0.18419 0.0057,0.24585 -0.219794,0.1621 -0.285143,0.85873 -0.117377,1.25151 0.155241,0.36348 0.398144,0.52943 0.47924,0.32742 z m 0.437465,-2.56774 c 0.126939,-0.0757 0.492959,-0.42698 0.81332,-0.78065 0.582298,-0.64282 0.582418,-0.64317 0.351546,-1.05743 -0.189731,-0.34048 -0.402909,-0.46339 -1.195521,-0.68925 l -0.964623,-0.27489 0.354666,-0.57961 c 0.230918,-0.37739 0.632178,-1.67076 0.54678,-1.78658 -0.177989,-0.24132 -0.528649,0.8135 -1.007681,1.67275 -0.59707,1.071 -0.452757,1.36295 0.730413,1.4776 0.481128,0.0466 0.89474,0.1315 0.919133,0.18863 0.08377,0.19611 -0.169314,0.68266 -0.570939,1.09744 -0.442331,0.45688 -0.425384,0.99923 0.02289,0.73199 z m 135.096995,46.68902 c 0.25696,-0.032 0.60057,-0.007 0.76357,0.0545 0.16291,0.0622 0.8331,0.0475 1.48913,-0.0322 0.65603,-0.0797 1.3246,-0.0919 1.48572,-0.0273 0.16111,0.0647 0.43829,0.0228 0.61595,-0.0931 0.30138,-0.1966 0.37164,-0.17484 1.0494,0.32516 0.67876,0.50069 0.78373,0.53302 1.6005,0.49288 0.57298,-0.0282 1.20854,-0.23453 1.84492,-0.59904 0.53396,-0.30585 1.09871,-0.55413 1.25501,-0.55173 0.1563,0.002 0.44606,-0.0571 0.6439,-0.13212 0.19785,-0.0751 0.70511,-0.19043 1.12726,-0.25636 0.71798,-0.11213 1.59143,-0.77144 1.83901,-1.38816 0.043,-0.10705 0.50733,-0.56466 1.0319,-1.0169 1.06795,-0.92071 1.63877,-2.01101 1.54816,-2.95702 -0.0446,-0.46524 -0.0147,-0.53965 0.25091,-0.62502 0.1864,-0.0599 0.41008,-0.36809 0.58594,-0.8073 0.27656,-0.69067 0.23097,-1.41025 -0.20229,-3.1929 -0.10688,-0.43976 -0.0527,-1.04356 0.14137,-1.57637 0.0312,-0.0854 0.21563,-0.37228 0.40997,-0.63728 0.43365,-0.59134 0.15618,-1.6155 -0.20278,-1.7596 -0.21206,-0.0851 -0.0571,0.78153 -0.36298,1.32365 -0.34227,0.60671 -0.44149,0.68123 -0.73442,0.55158 -0.25604,-0.11356 -0.38912,-0.057 -0.54555,0.23119 -0.11377,0.2096 -0.54374,0.51811 -0.95547,0.68559 -0.57533,0.23402 -0.87942,0.25199 -1.31373,0.0776 -0.52773,-0.21185 -0.58187,-0.19447 -0.81819,0.2623 -0.31609,0.61094 -0.20427,0.97851 0.41836,1.37513 0.26742,0.17039 0.50303,0.46226 0.52355,0.64866 0.0551,0.50063 -0.22091,1.07505 -0.57061,1.18744 -0.16879,0.0542 -0.38666,0.29735 -0.48416,0.54023 -0.10186,0.25373 -0.36417,0.51059 -0.6166,0.60379 -0.63507,0.23448 -0.72235,0.27431 -1.6166,0.73784 -0.46513,0.2411 -1.0198,0.38504 -1.30202,0.33788 -0.4981,-0.0832 -0.69282,0.0535 -0.48245,0.33872 0.0635,0.086 0.0152,0.40592 -0.10717,0.71082 -0.40568,1.01057 -2.68158,1.6444 -4.00168,1.11445 l -0.63597,-0.25531 -0.11168,0.56157 c -0.15297,0.76922 -0.49476,0.71666 -1.92469,-0.29601 -1.26973,-0.89922 -1.45796,-0.94898 -1.92067,-0.50786 -0.41249,0.39324 -0.7343,0.25521 -1.71347,-0.73484 -0.55792,-0.56417 -0.80829,-1.19011 -0.90436,-1.07686 -0.0866,0.10209 -0.47567,0.0245 -1.06675,-0.21282 -1.01275,-0.40657 -0.93892,-0.30247 -2.34422,-3.30639 -0.41389,-0.88473 -0.60112,-2.56493 -0.35545,-3.18987 0.19994,-0.50852 0.019,-0.92469 -0.29101,-0.79228 -0.19648,0.0839 -0.21566,0.38906 -0.28236,1.33154 -0.0476,0.67246 -0.0226,1.24833 0.0555,1.27969 0.0781,0.0314 0.14595,0.33496 0.15071,0.67466 0.005,0.3397 0.14114,0.81543 0.30305,1.05717 0.16192,0.24174 0.5564,1.08597 0.87664,1.87607 0.32024,0.79009 0.67476,1.47368 0.78783,1.51907 0.11307,0.0454 0.224,0.72879 0.27539,0.98452 0.1724,0.85805 1.30971,1.528 2.22608,1.3113 0.63507,-0.15018 1.01772,0.0143 0.98717,0.42431 -0.0509,0.6826 0.43901,2.61129 0.76932,3.02876 0.29869,0.37749 0.40525,0.42695 0.81108,0.37647 z m 17.38656,-14.46193 c 0.0298,-0.0742 -0.15433,-0.51433 -0.40917,-0.97799 -0.39355,-0.71602 -0.4215,-0.87811 -0.18546,-1.07598 0.15285,-0.12812 0.23249,-0.25119 0.17698,-0.27347 -0.0555,-0.0223 0.003,-0.099 0.13011,-0.1705 0.12706,-0.0715 0.32525,-0.41292 0.44042,-0.75871 0.28696,-0.8616 0.54696,-1.43176 0.29886,-1.53135 -0.32535,-0.13061 -0.93804,0.95931 -0.93144,1.56238 0.005,0.44538 -0.051,0.55597 -0.35573,0.7045 -0.19884,0.0969 -0.39939,0.27495 -0.44567,0.39567 -0.12495,0.326 0.12715,1.02419 0.58881,1.63053 0.44544,0.58504 0.60912,0.70205 0.69228,0.49492 z m 0.48162,-4.59578 c 0.2262,-0.16683 0.0299,-1.58733 -0.16866,-1.77162 -0.31474,-0.29213 -0.1529,0.4678 -0.11014,1.1643 0.0411,0.67011 0.0797,0.75416 0.27884,0.60732 z m -0.34562,-1.95726 c -0.06,-0.25105 -0.33884,-1.03392 -0.63021,-1.15089 -0.34811,-0.13975 -0.57808,0.0371 -0.61031,0.46935 -0.0199,0.26703 0.11,0.39895 0.57782,0.58675 0.33192,0.13325 0.94289,1.2665 0.92256,1.18148 z"
       id="path60"
       sodipodi:nodetypes="csssssssssssssssssscssscssssssssssssscssssssssssssssssssssssssssssssssssssssssssssssssscsssssccssssssssssscscsssssssssccsssssscssssscssssssssssscsssssssssssssscssssssscssssscsssscsssssscsscssscssssssssscssscsssssssssssscsssssssssccssssssssssssssscssscsssccsccccccsssssscsssssssssscssccsssccsssssscsssssssssscssscssccssssssssssssscscssscssccscssssccssssssscssscsssssssssssscscssssssssssscsssssssccssssssscssssssssssssssss" />
    <path
       style="fill:#daa2a2;stroke-width:0.165365"
       d="m 104.0761,261.66182 c 0.47092,-0.25502 1.20748,-1.62065 2.17789,-4.03794 1.44425,-3.5976 2.44291,-7.62948 3.59634,-14.51936 0.98394,-5.87746 2.21766,-10.97406 2.96544,-12.25042 0.32397,-0.55297 0.34252,-0.69174 0.13787,-1.031 -0.23608,-0.39135 -0.23453,-0.39238 0.8914,-0.59507 1.70862,-0.30759 4.24456,-0.45068 6.03908,-0.34075 4.37349,0.26792 8.68386,1.58321 14.96163,4.56549 3.71334,1.76403 4.68643,2.33007 6.7415,3.92149 2.56213,1.98409 2.46349,1.92829 3.50741,1.98382 1.25391,0.0667 1.33051,0.0163 1.36942,-0.90131 0.0468,-1.1027 0.28921,-1.35575 1.19403,-1.24627 0.79205,0.0958 2.50676,-0.42454 2.87603,-0.87279 0.12142,-0.14739 0.14939,-0.48633 0.0679,-0.82347 -0.17583,-0.72786 0.19929,-1.69301 0.89173,-2.29437 0.28634,-0.24867 1.03116,-0.71067 1.65516,-1.02668 0.624,-0.31599 1.4388,-0.81017 1.81067,-1.09816 0.54096,-0.41893 0.91273,-0.53866 1.85963,-0.5989 1.86664,-0.11876 1.86674,-0.16671 0.007,-3.14465 -2.49734,-3.99816 -3.44005,-5.626 -4.26539,-7.36538 -1.89553,-3.99475 -5.95618,-10.81596 -15.5459,-26.11447 -3.55477,-5.67092 -7.12016,-11.27099 -7.9231,-12.44458 -6.49397,-9.49181 -15.13137,-18.31378 -23.15575,-23.65054 -2.07347,-1.37901 -6.259428,-3.14373 -7.823925,-3.29844 -1.179497,-0.11663 -8.060682,0.52203 -9.881175,0.9171 -4.467957,0.9696 -11.642477,3.88944 -20.698795,8.42385 -9.539473,4.77633 -15.976691,9.14142 -24.933506,16.90748 -2.12852,1.84555 -5.528092,4.6144 -7.554604,6.153 -4.577271,3.47523 -7.084421,5.63586 -8.257886,7.11656 -1.165573,1.47073 -3.512259,5.18663 -3.416146,5.40933 0.04057,0.0941 0.52659,0.4413 1.079998,0.77168 1.723007,1.02858 2.295221,2.37235 1.909689,4.48462 -0.100428,0.55024 -0.154531,1.06614 -0.120231,1.14645 0.03424,0.0803 0.389748,-0.005 0.789894,-0.19021 0.866811,-0.4006 1.742803,-0.24992 3.357136,0.57749 1.313328,0.67313 3.113455,2.01393 3.404085,2.53547 l 0.219147,0.39327 -0.776121,0.20105 c -0.426866,0.11058 -0.814557,0.21025 -0.861536,0.22149 -0.04696,0.0112 -0.04613,0.10955 0.0015,0.21831 0.0527,0.11997 0.7507,0.29167 1.773233,0.43594 1.190548,0.16807 2.328411,0.4657 3.870224,1.0123 1.871207,0.66337 2.313657,0.76529 3.090373,0.71171 1.027721,-0.0709 2.416319,0.39966 3.497089,1.18507 0.593989,0.43165 0.662892,0.44694 0.992313,0.22016 0.1947,-0.13404 0.466294,-0.19822 0.603541,-0.14265 0.137225,0.0556 0.674841,0.91692 1.194664,1.91411 1.04386,2.00246 1.643379,2.78819 2.341199,3.06832 0.38558,0.15479 0.556691,0.10462 1.019157,-0.29878 l 0.555772,-0.48481 1.382611,0.65892 c 1.133712,0.54025 1.777797,0.73384 3.577762,1.07506 2.168631,0.41112 3.349035,0.77394 3.760552,1.1559 0.116269,0.10788 0.245467,0.58584 0.287132,1.06209 0.08632,0.98659 0.692059,2.34346 1.323796,2.96534 0.985492,0.9701 2.714835,1.21261 3.47556,0.48738 0.181014,-0.17257 0.430946,-0.27288 0.555402,-0.22292 0.124456,0.05 0.644147,0.77073 1.154865,1.6017 1.236861,2.01246 1.663131,2.55737 2.155992,2.75603 0.449136,0.18101 1.084695,-0.12453 1.282149,-0.61638 0.10561,-0.26307 0.192031,-0.25046 0.858193,0.12534 1.478761,0.83423 2.357533,1.9234 3.855404,4.77847 1.129184,2.15232 2.313213,3.87295 2.84058,4.12791 0.335786,0.16239 0.444492,0.12521 0.666379,-0.22746 1.032443,-1.64102 5.185698,0.21945 5.904476,2.64495 0.131734,0.44451 0.368706,0.84676 0.539145,0.91518 0.749398,0.30084 1.181838,-0.008 2.598496,-1.85762 0.764627,-0.99816 1.12353,-1.07076 2.512107,-0.50827 1.651953,0.66963 1.92981,1.10257 2.539915,3.96332 0.580112,2.72007 1.401337,3.83474 3.064349,4.15929 0.946477,0.18471 1.954283,0.79424 2.470992,1.49522 0.455982,0.61826 0.635868,1.44474 0.836109,3.84149 0.08436,1.0097 0.269193,2.25395 0.410747,2.76498 0.141554,0.51103 0.287695,1.26525 0.324762,1.67603 0.09337,1.03477 0.463602,1.51887 1.327072,1.73524 0.38012,0.0953 0.827,0.17529 0.99306,0.17784 0.24276,0.004 0.26605,0.094 0.11882,0.46073 -0.23106,0.57555 -0.001,1.37264 0.66106,2.29278 0.56995,0.79187 0.90291,0.99534 1.28775,0.78693 z M 13.9624,205.59074 c 0.08471,-0.211 0.08456,-0.31129 -3.91e-4,-0.22289 -0.08495,0.0884 -0.154255,0.26105 -0.154015,0.38365 2.41e-4,0.12261 0.06968,0.0503 0.154406,-0.16076 z m 153.37891,28.05989 c 0.006,-0.1029 -0.0544,-0.21338 -0.13455,-0.24557 -0.0802,-0.0322 -0.20034,0.006 -0.26701,0.0844 -0.0667,0.0786 -0.006,0.18909 0.13456,0.24557 0.14067,0.0565 0.26082,0.0185 0.267,-0.0844 z"
       id="path58" />
    <path
       style="fill:#cd5d5d;stroke-width:0.165365"
       d="m 104.19509,261.29348 c 0.3625,-0.25282 0.62467,-0.74711 1.56791,-2.95616 1.63801,-3.83614 2.74803,-8.1093 3.85407,-14.83673 0.90464,-5.50236 2.20528,-11.07968 2.99709,-12.8519 0.19584,-0.43834 0.21925,-0.67881 0.0788,-0.8092 -0.24817,-0.23034 -0.0275,-0.84027 0.262,-0.72407 0.11638,0.0467 0.71558,0.002 1.33156,-0.0988 6.20757,-1.01842 11.98981,0.18247 20.62087,4.28268 3.73641,1.77499 4.69183,2.33314 6.76421,3.95158 1.04665,0.8174 2.05735,1.56348 2.246,1.65796 0.37766,0.18911 1.94031,0.4099 2.21378,0.31273 0.0949,-0.0338 0.19284,-0.43329 0.21762,-0.88792 0.0598,-1.09719 0.27906,-1.3173 1.25997,-1.26491 0.89515,0.0478 2.5793,-0.55361 2.75151,-0.98258 0.0588,-0.14641 0.0589,-0.58085 2.6e-4,-0.96542 -0.0957,-0.62773 -0.0604,-0.76085 0.34502,-1.30189 0.53251,-0.71062 1.45641,-1.39595 2.70385,-2.00566 0.49542,-0.24214 1.23073,-0.68018 1.63402,-0.9734 0.57151,-0.41553 0.94042,-0.53546 1.67233,-0.54363 0.51649,-0.006 1.06669,-0.0796 1.22265,-0.16406 0.32416,-0.17554 0.25329,-0.33388 -1.17496,-2.62537 -2.5397,-4.07471 -3.43917,-5.62747 -4.25121,-7.33892 -1.89767,-3.99946 -6.00552,-10.90144 -15.55936,-26.14272 -6.90127,-11.00961 -8.4437,-13.34985 -11.01874,-16.71797 -7.2922,-9.53812 -17.30331,-18.55421 -23.83658,-21.46744 -2.949175,-1.31505 -3.729192,-1.40299 -8.547345,-0.96367 -2.163864,0.19731 -4.603485,0.50266 -5.421381,0.67858 -3.287793,0.70715 -8.309009,2.58394 -13.995684,5.23121 -9.59525,4.46678 -15.063917,7.5245 -21.023381,11.75492 -3.616776,2.56742 -5.777037,4.28648 -10.220673,8.13322 -2.204341,1.90824 -5.665845,4.72842 -7.692227,6.26707 -4.578082,3.47618 -7.084535,5.63634 -8.257561,7.1167 -1.017118,1.28362 -3.416356,5.01714 -3.375479,5.2527 0.01462,0.0841 0.267029,0.29594 0.560951,0.4707 0.950169,0.56495 1.622837,1.12865 1.944558,1.62953 0.453968,0.70676 0.658896,2.06877 0.474014,3.15044 -0.08813,0.51563 -0.149392,0.97447 -0.136139,1.01965 0.01322,0.0452 0.260371,-0.0295 0.549137,-0.16606 0.99009,-0.46809 2.358158,-0.0916 4.533427,1.24746 1.211951,0.74609 2.635396,2.09976 2.585937,2.4592 -0.01283,0.0929 -0.359368,0.26498 -0.770204,0.38247 l -0.746974,0.21362 0.572806,0.12672 c 0.315038,0.0697 1.099536,0.21282 1.743327,0.31808 0.64378,0.10525 2.119324,0.52444 3.278984,0.9315 1.784626,0.62645 2.247697,0.73053 3.014934,0.67769 1.022184,-0.0704 2.415447,0.39915 3.480142,1.17288 0.572148,0.41578 0.650011,0.43291 0.982299,0.21614 0.198488,-0.12949 0.484239,-0.18591 0.634995,-0.12539 0.150765,0.0605 0.715258,0.96417 1.254445,2.00812 1.504752,2.91343 2.132455,3.42891 3.218913,2.64349 l 0.629733,-0.45525 1.383489,0.66143 c 1.130546,0.54049 1.803178,0.74446 3.678829,1.11575 3.574887,0.70763 4.010018,0.94933 4.041776,2.24508 0.02402,0.97991 0.568641,2.24464 1.259426,2.92464 0.993238,0.97773 2.492959,1.20023 3.314291,0.49171 0.23128,-0.19952 0.530632,-0.31855 0.665221,-0.26452 0.13459,0.054 0.740351,0.88693 1.34615,1.8509 1.340896,2.13371 1.540134,2.37418 2.092056,2.52506 0.334388,0.0915 0.523492,0.0119 0.82641,-0.34745 0.388512,-0.46092 0.401464,-0.46205 1.191599,-0.10323 1.24675,0.56623 2.369478,1.91689 3.804916,4.57758 1.252215,2.3211 2.201844,3.78709 2.73666,4.22477 0.238941,0.19559 0.377214,0.15574 0.805501,-0.231 0.714675,-0.64555 1.684403,-0.69792 2.987465,-0.16134 1.476664,0.6081 2.356784,1.42641 2.866902,2.66567 0.694536,1.68728 1.3367,1.62466 2.74577,-0.26778 1.151356,-1.54631 1.463049,-1.64252 3.031333,-0.93573 1.79698,0.80986 1.883415,0.96009 2.786679,4.8438 0.170621,0.7336 0.518479,1.63503 0.773023,2.00314 0.43927,0.6353 0.545187,0.69991 2.083336,1.27073 2.613213,0.96976 2.958183,1.53407 3.315133,5.42232 0.09981,1.08727 0.311387,2.4151 0.470166,2.95072 0.158777,0.53562 0.274966,1.14525 0.258204,1.35473 -0.01677,0.20947 0.11305,0.65026 0.288481,0.97952 0.27686,0.51964 0.40715,0.61668 0.9872,0.73526 1.35504,0.27701 1.47478,0.36182 1.21454,0.8602 -0.31001,0.59372 -0.072,1.37017 0.68427,2.23242 0.32729,0.37317 0.63032,0.69263 0.67338,0.70991 0.0431,0.0173 0.27417,-0.10518 0.51358,-0.27215 z m 10.8196,-56.11986 c 0.0339,-0.0844 0.13066,-0.12575 0.21507,-0.0919 0.0844,0.0339 0.12574,0.13065 0.0919,0.21507 -0.0339,0.0844 -0.13066,0.12573 -0.21506,0.0918 -0.0844,-0.0339 -0.12574,-0.13065 -0.0919,-0.21506 z m 1.41694,-3.5296 c 0.0339,-0.0844 0.13066,-0.12573 0.21507,-0.0919 0.0844,0.0339 0.12574,0.13065 0.0919,0.21506 -0.0339,0.0844 -0.13067,0.12575 -0.21507,0.0919 -0.0844,-0.0339 -0.12575,-0.13065 -0.0919,-0.21507 z"
       id="path56" />
    <path
       style="fill:#ce0000;stroke-width:0.165365"
       d="m 104.15352,261.176 c 0.24639,-0.19523 0.70472,-1.18592 1.72076,-3.71946 1.52856,-3.81165 2.12577,-5.99868 3.04741,-11.16097 0.26124,-1.46322 0.73278,-4.10673 1.04788,-5.87447 0.3151,-1.76774 0.91967,-4.49194 1.34348,-6.05378 1.19122,-4.38991 1.7352,-8.71867 1.91156,-15.21148 0.14396,-5.29989 0.16536,-5.66496 0.49998,-8.5307 0.26426,-2.26308 0.68344,-4.01192 1.51951,-6.33949 0.98613,-2.74535 1.92631,-4.49559 2.92394,-5.44323 2.39228,-2.27243 4.80258,0.44832 4.11794,4.64831 -0.21238,1.30285 -1.35229,3.78674 -1.8318,3.99154 -0.52617,0.22473 -0.51437,0.0366 0.0518,-0.82658 1.04301,-1.58999 1.42848,-2.99852 1.3254,-4.84306 -0.0757,-1.35484 -0.35537,-2.16899 -0.99737,-2.90364 -0.32164,-0.36805 -0.42424,-0.40897 -0.94309,-0.37644 -1.2745,0.0807 -2.57611,1.75799 -3.87497,4.99344 -0.44822,1.1165 -0.63761,1.71124 -1.08171,3.39688 -0.54876,2.08283 -1.01117,6.39506 -1.10834,10.33569 -0.0168,0.67931 -0.0475,1.54902 -0.0683,1.93268 -0.0208,0.38365 -0.0516,1.25333 -0.0685,1.93262 -0.0404,1.63173 -0.11453,2.87281 -0.26504,4.43749 -0.22214,2.30924 -0.28746,2.99943 -0.30475,3.21992 -0.0117,0.14937 0.3523,0.16621 1.16733,0.0539 7.00465,-0.96506 12.14447,0.17439 21.72657,4.81652 3.71602,1.80027 3.48697,1.6625 5.95665,3.58286 1.57503,1.22471 2.06116,1.52661 2.83349,1.75967 0.51274,0.15476 1.02893,0.24004 1.14706,0.18959 0.14301,-0.0611 0.25313,-0.38296 0.32947,-0.96313 0.13932,-1.05851 0.37384,-1.27546 1.31871,-1.21991 0.67895,0.0399 2.47591,-0.64379 2.61466,-0.99482 0.0412,-0.10426 0.0209,-0.45178 -0.0452,-0.77231 -0.066,-0.32053 -0.0367,-0.78987 0.0652,-1.04297 0.27868,-0.69197 1.41788,-1.67488 2.6251,-2.26486 0.59186,-0.28925 1.45932,-0.79976 1.92768,-1.13447 0.67008,-0.47885 1.06948,-0.62234 1.874,-0.67323 0.56233,-0.0356 1.06236,-0.16417 1.11119,-0.28578 0.0864,-0.21528 -0.28424,-0.8631 -2.94694,-5.15053 -0.7059,-1.13664 -1.69802,-2.9315 -2.20471,-3.98859 -2.06979,-4.31814 -6.47588,-11.70703 -16.56026,-27.7711 -6.13258,-9.76897 -7.83082,-12.33228 -10.43008,-15.74303 -6.92158,-9.08248 -17.12076,-18.23933 -23.57793,-21.16831 -2.75653,-1.25037 -3.830485,-1.38183 -8.230785,-1.00753 -1.873921,0.15941 -4.194305,0.4465 -5.156388,0.63798 -4.787035,0.95277 -10.846799,3.35811 -20.201218,8.01858 -9.768804,4.86692 -16.872349,9.63032 -25.115235,16.84146 -3.739857,3.27173 -4.033267,3.5099 -8.739683,7.09392 -5.883365,4.48029 -7.186342,5.78807 -9.699392,9.73515 -0.670129,1.05253 -1.202884,1.95007 -1.183907,1.99452 0.019,0.0445 0.464968,0.36801 0.99107,0.71903 1.074522,0.71693 1.659264,1.49608 1.876472,2.50032 0.168846,0.78065 0.153734,1.85218 -0.03308,2.34591 -0.167903,0.44509 0.0028,0.65625 0.370206,0.45727 0.615588,-0.33336 1.311233,-0.26177 2.640175,0.27173 2.09551,0.84124 4.327765,2.46433 4.613991,3.35487 0.09949,0.30955 0.04471,0.3701 -0.484993,0.53601 -0.728018,0.22802 -0.688103,0.24662 1.286429,0.59962 1.039455,0.18583 2.189624,0.52651 3.364112,0.99646 1.615599,0.64642 1.864174,0.70386 2.624266,0.60612 1.113259,-0.14318 2.153123,0.13626 3.349289,0.90001 0.960913,0.61353 0.98461,0.61986 1.417361,0.37871 0.579884,-0.32312 0.771325,-0.11166 1.92467,2.12602 0.859319,1.66722 1.616351,2.67964 2.178743,2.91374 0.154892,0.0643 0.488434,-0.0858 0.80641,-0.36314 0.664578,-0.57971 0.964445,-0.58629 1.693492,-0.0372 0.661241,0.49805 1.906464,0.88441 4.167902,1.29318 0.873519,0.15789 2.087843,0.48766 2.698494,0.7328 1.217489,0.48875 1.354483,0.66634 1.349246,1.7491 -0.0058,1.19581 1.225841,3.02668 2.335754,3.47225 0.63052,0.25312 1.571999,0.11987 2.117018,-0.29964 0.296985,-0.2286 0.627941,-0.38032 0.735451,-0.33716 0.107501,0.0432 0.700668,0.89286 1.318139,1.88822 0.617462,0.99535 1.309976,1.99689 1.538915,2.22561 0.523383,0.5229 1.014206,0.49799 1.401912,-0.0712 0.355626,-0.52209 0.549638,-0.51121 1.495953,0.0839 1.451161,0.91264 2.119528,1.80508 4.065326,5.42826 1.486515,2.76798 2.525094,3.87137 2.859619,3.03807 0.301856,-0.75192 2.026316,-0.72707 3.582002,0.0516 1.296051,0.64874 2.00719,1.3973 2.506025,2.63786 0.611833,1.52158 1.163489,1.41583 2.561403,-0.49097 1.192113,-1.62609 1.550544,-1.70754 3.394401,-0.77136 1.126961,0.5722 1.257135,0.68563 1.564893,1.36358 0.184626,0.4067 0.474893,1.37666 0.645034,2.15547 0.703013,3.21792 1.032646,3.66581 3.341879,4.54076 2.400697,0.90966 2.778836,1.52449 3.123173,5.07853 0.116998,1.20759 0.33326,2.62172 0.480586,3.14252 0.147325,0.5208 0.299503,1.28313 0.338173,1.69407 0.08912,0.94711 0.48781,1.3159 1.64765,1.5241 0.47922,0.086 0.91067,0.20816 0.95878,0.27142 0.0481,0.0633 -0.0166,0.37424 -0.1438,0.69109 -0.25415,0.63309 -0.0297,1.33496 0.68744,2.14946 0.5144,0.58425 0.63895,0.62066 1.03889,0.30375 z"
       id="path54" />
    <path
       style="fill:#ba0000;stroke-width:0.165365"
       d="m 104.15352,261.176 c 0.24639,-0.19523 0.70472,-1.18592 1.72076,-3.71946 1.52856,-3.81165 2.12577,-5.99868 3.04741,-11.16097 0.26124,-1.46322 0.73278,-4.10673 1.04788,-5.87447 0.3151,-1.76774 0.91967,-4.49194 1.34348,-6.05378 1.19122,-4.38991 1.7352,-8.71867 1.91156,-15.21148 0.14396,-5.29989 0.16536,-5.66496 0.49998,-8.5307 0.26426,-2.26308 0.68344,-4.01192 1.51951,-6.33949 0.98613,-2.74535 1.92631,-4.49559 2.92394,-5.44323 2.39228,-2.27243 4.80258,0.44832 4.11794,4.64831 -0.21238,1.30285 -1.35229,3.78674 -1.8318,3.99154 -0.52617,0.22473 -0.51437,0.0366 0.0518,-0.82658 1.04301,-1.58999 1.42848,-2.99852 1.3254,-4.84306 -0.0757,-1.35484 -0.35537,-2.16899 -0.99737,-2.90364 -0.32164,-0.36805 -0.42424,-0.40897 -0.94309,-0.37644 -1.2745,0.0807 -2.57611,1.75799 -3.87497,4.99344 -0.44822,1.1165 -0.63761,1.71124 -1.08171,3.39688 -0.54876,2.08283 -1.01117,6.39506 -1.10834,10.33569 -0.0168,0.67931 -0.0475,1.54902 -0.0683,1.93268 -0.0208,0.38365 -0.0516,1.25333 -0.0685,1.93262 -0.0404,1.63173 -0.11453,2.87281 -0.26504,4.43749 -0.22214,2.30924 -0.28746,2.99943 -0.30475,3.21992 -0.0117,0.14937 0.3523,0.16621 1.16733,0.0539 7.00465,-0.96506 12.14447,0.17439 21.72657,4.81652 3.71602,1.80027 3.48697,1.6625 5.95665,3.58286 1.57503,1.22471 2.06116,1.52661 2.83349,1.75967 0.51274,0.15476 1.02893,0.24004 1.14706,0.18959 0.14301,-0.0611 0.25313,-0.38296 0.32947,-0.96313 0.13932,-1.05851 0.37384,-1.27546 1.31871,-1.21991 0.70467,0.0414 2.72187,-0.74641 2.46627,-0.96323 -0.2804,-0.23787 -2.0649,-0.51304 -2.52965,-0.39007 -0.26284,0.0695 -0.76587,0.47129 -1.15015,0.91856 -0.37564,0.43723 -0.70446,0.8071 -0.7307,0.82193 -0.0821,0.0464 -8.01562,-6.509 -9.78946,-8.08889 -2.31665,-2.06336 -3.22025,-3.17029 -4.0703,-4.98618 -1.52753,-3.26312 -2.16532,-6.25545 -3.37483,-15.83375 -0.75358,-5.96772 -1.19032,-8.55136 -1.80908,-10.70203 -0.86931,-3.02148 -1.92756,-4.58159 -3.54943,-5.23268 -2.21639,-0.88976 -3.53092,-0.0875 -8.77887,5.35803 -6.09573,6.32519 -10.24794,9.86417 -15.68011,13.36436 -2.304345,1.4848 -5.932004,3.53518 -7.842163,4.43247 -7.896258,3.70923 -18.920173,3.71001 -31.825724,0.002 -5.025048,-1.44371 -8.117773,-2.57943 -15.762724,-5.78849 -4.109724,-1.72515 -7.942232,-3.30769 -8.516673,-3.51682 -0.689453,-0.25103 -1.400944,-0.65432 -2.093432,-1.18664 -0.668728,-0.514 -1.265197,-0.85538 -1.645292,-0.94164 l -0.596248,-0.13538 0.0748,-0.97735 c 0.05575,-0.72829 -0.04816,-1.26524 -0.407744,-2.10716 -0.594668,-1.39236 -1.179291,-1.87824 -2.923361,-2.42963 -1.594025,-0.50395 -2.708394,-0.4446 -3.107364,0.16549 -0.153967,0.23537 -0.261189,0.47158 -0.2385,0.52485 0.02277,0.0533 0.471831,0.3841 0.997933,0.73512 1.074521,0.71693 1.659264,1.49608 1.876472,2.50032 0.168846,0.78065 0.153734,1.85218 -0.03308,2.34591 -0.167903,0.44509 0.0028,0.65625 0.370207,0.45727 0.615587,-0.33336 1.311232,-0.26177 2.640175,0.27173 2.095509,0.84123 4.327764,2.46432 4.61399,3.35486 0.09949,0.30956 0.04471,0.3701 -0.484993,0.53602 -0.728017,0.22802 -0.688103,0.24662 1.286429,0.59962 1.039455,0.18583 2.189624,0.52651 3.364112,0.99646 1.6156,0.64642 1.864174,0.70386 2.624266,0.60612 1.113259,-0.14318 2.153124,0.13626 3.349289,0.9 0.960914,0.61354 0.98461,0.61987 1.417362,0.37872 0.579884,-0.32313 0.771325,-0.11166 1.924669,2.12602 0.85932,1.66722 1.616352,2.67964 2.178743,2.91374 0.154892,0.0643 0.488434,-0.0858 0.80641,-0.36314 0.664578,-0.57971 0.964445,-0.58629 1.693493,-0.0372 0.66124,0.49805 1.906464,0.88441 4.167902,1.29318 0.873519,0.15789 2.087842,0.48765 2.698494,0.7328 1.217488,0.48875 1.354483,0.66633 1.349245,1.7491 -0.0058,1.19581 1.225841,3.02668 2.335755,3.47225 0.63051,0.25312 1.571998,0.11986 2.117017,-0.29964 0.296986,-0.2286 0.627941,-0.38032 0.735451,-0.33716 0.107501,0.0432 0.700668,0.89286 1.318139,1.88822 0.617462,0.99535 1.309976,1.99688 1.538907,2.22561 0.523383,0.52289 1.014214,0.49799 1.40192,-0.0712 0.355626,-0.5221 0.549638,-0.51121 1.495944,0.0839 1.451161,0.91265 2.119537,1.80509 4.065336,5.42826 1.486505,2.76799 2.525084,3.87137 2.859609,3.03807 0.301857,-0.75192 2.026316,-0.72707 3.582002,0.0516 1.296051,0.64874 2.0072,1.3973 2.506035,2.63785 0.611824,1.52158 1.163489,1.41584 2.561402,-0.49097 1.192113,-1.62608 1.550545,-1.70754 3.394401,-0.77135 1.126961,0.5722 1.257136,0.68563 1.564894,1.36358 0.184626,0.4067 0.474892,1.37666 0.645034,2.15547 0.703013,3.21792 1.032645,3.66581 3.341878,4.54076 2.400698,0.90966 2.778837,1.52449 3.123173,5.07853 0.116998,1.20759 0.33326,2.62172 0.480587,3.14252 0.147325,0.52079 0.299502,1.28313 0.338172,1.69406 0.08912,0.94711 0.487812,1.3159 1.647652,1.52411 0.47922,0.086 0.91066,0.20816 0.95877,0.27141 0.0481,0.0633 -0.0166,0.37425 -0.14379,0.6911 -0.25415,0.63309 -0.0297,1.33496 0.68744,2.14946 0.5144,0.58425 0.63894,0.62066 1.03889,0.30375 z m 47.35456,-28.46351 c 0.0531,-0.0933 0.57779,-0.40389 1.1659,-0.69021 0.58812,-0.28634 1.52635,-0.83087 2.08497,-1.21009 0.81154,-0.55091 1.17615,-0.68678 1.81413,-0.67596 1.19115,0.0202 1.42416,-0.1653 1.06854,-0.8506 l -0.2908,-0.56038 -1.22402,0.57527 c -0.67321,0.3164 -1.59233,0.67445 -2.04249,0.79567 -0.99112,0.26691 -2.32161,1.45534 -2.5352,2.2645 -0.0757,0.28676 -0.0942,0.44507 -0.041,0.3518 z M 42.231677,181.64545 c 0.09182,-0.0677 0.147126,-0.1692 0.123093,-0.22556 -0.02415,-0.0564 -0.127446,-0.0124 -0.229723,0.0978 -0.212318,0.22876 -0.142962,0.31183 0.106643,0.12772 z m 28.451199,-18.98513 c 0.171045,-0.1853 0.160487,-0.21 -0.05144,-0.12044 -0.146663,0.062 -0.243528,0.1669 -0.21524,0.23312 0.02827,0.0662 0.148295,0.0155 0.266669,-0.11272 z m 2.332537,-1.10525 c 0.313294,-0.2721 0.310827,-0.27787 -0.05598,-0.13107 -0.211027,0.0845 -0.358499,0.21255 -0.327709,0.28464 0.03077,0.072 0.203444,0.003 0.383689,-0.15357 z m 5.023371,-2.22791 c 0.793944,-0.36578 1.302706,-0.64955 1.130576,-0.63061 -0.341263,0.0376 -2.576455,1.03315 -2.632397,1.1725 -0.06702,0.16695 0.0726,0.11653 1.501821,-0.54189 z m 14.741677,-4.16249 c 0.378055,-0.11434 0.377317,-0.11793 -0.01877,-0.0904 -0.226866,0.0158 -0.425347,0.0608 -0.441094,0.10005 -0.04714,0.11743 0.04609,0.11548 0.45985,-0.01 z m 10.297679,1.2601 c -0.093,-0.0888 -0.22753,-0.13649 -0.29901,-0.10592 -0.0715,0.0305 0.005,0.10314 0.16908,0.1614 0.18175,0.0643 0.23269,0.0427 0.12992,-0.0555 z"
       id="path52" />
    <path
       style="fill:#6e2121;stroke-width:0.165365"
       d="m 104.14488,261.17253 c 0.45136,-0.37189 2.03211,-3.95085 1.78824,-4.04875 -0.0987,-0.0396 -0.97406,0.01 -1.94534,0.11001 -2.27573,0.23456 -2.75584,0.0671 -2.99181,-1.04357 -0.49784,-2.34332 -0.49484,-2.45768 0.14042,-5.35777 0.53451,-2.4401 0.56345,-3.26776 0.14329,-4.09795 -0.48833,-0.96491 -1.06955,-1.26088 -2.819851,-1.43595 -3.219652,-0.32203 -4.010058,-1.11906 -4.609076,-4.64766 -0.0974,-0.5738 -0.3182,-1.22227 -0.49065,-1.44105 -0.410628,-0.52094 -2.126087,-1.36434 -3.529307,-1.73517 -0.964984,-0.25502 -1.202915,-0.25253 -1.749943,0.0184 -0.632815,0.3134 -0.633475,0.31331 -1.419558,-0.20165 -1.080937,-0.70811 -2.208338,-1.13648 -3.695299,-1.40404 -1.664019,-0.29948 -2.972279,-0.23827 -4.105352,0.19206 l -0.927219,0.35214 -0.500506,-0.71149 c -0.745849,-1.06024 -1.041214,-1.74914 -1.821806,-4.24904 -0.733368,-2.34866 -1.563242,-4.25385 -1.914309,-4.39479 -0.110768,-0.0445 -0.325621,0.10152 -0.477443,0.32443 -0.505759,0.74251 -0.957178,0.77575 -2.340249,0.17233 -0.991261,-0.43253 -1.48172,-0.76488 -2.481187,-1.68166 -1.18303,-1.08513 -2.007444,-1.72583 -2.653199,-2.06195 -0.199428,-0.10377 -0.434158,-0.019 -0.74952,0.27061 -0.578294,0.53116 -1.067203,0.65832 -1.642775,0.42726 -0.861326,-0.34577 -1.467171,-1.5545 -1.486978,-2.96667 -0.0052,-0.36896 -0.166067,-0.82158 -0.380345,-1.06997 -0.7507,-0.87023 -4.422701,-3.17942 -6.273259,-3.94504 -0.64238,-0.26542 -0.720711,-0.2543 -1.22996,0.17864 -0.504558,0.42895 -0.580472,0.44087 -1.048038,0.16455 -0.277234,-0.16388 -1.165239,-1.0479 -1.973306,-1.96458 -1.856683,-2.10621 -2.181278,-2.32551 -2.953733,-1.9956 l -0.581663,0.24843 -0.95357,-1.02302 c -1.029953,-1.10496 -1.521097,-1.38684 -2.297924,-1.31886 -0.274287,0.024 -1.035643,-0.11692 -1.691908,-0.31316 -1.411843,-0.42218 -3.517649,-0.76733 -5.402511,-0.88549 -0.746969,-0.0468 -1.386164,-0.15242 -1.420442,-0.23464 -0.03425,-0.0822 0.408041,-0.32244 0.982926,-0.53383 0.93782,-0.34484 0.974845,-0.37402 0.360226,-0.28389 -0.925882,0.13576 -1.212931,-0.009 -2.418203,-1.21914 -1.475881,-1.48191 -2.508447,-2.25023 -3.608949,-2.6854 l -0.959201,-0.37968 0.08887,-0.89618 c 0.11537,-1.16341 -0.24626,-2.43249 -0.924911,-3.24582 -0.496836,-0.59544 -0.667894,-0.69222 -2.07846,-1.17599 -1.322283,-0.45346 -1.64523,-0.50492 -2.311227,-0.36793 -0.754498,0.15519 -1.187918,0.42329 -1.082665,0.66971 0.02866,0.0671 0.48254,0.40917 1.008639,0.7602 1.074521,0.71693 1.659267,1.49607 1.876472,2.50032 0.168845,0.78065 0.153737,1.85217 -0.03308,2.34591 -0.1679,0.44508 0.0028,0.65624 0.37021,0.45726 0.615584,-0.33336 1.311229,-0.26176 2.640172,0.27174 2.095509,0.84123 4.327764,2.46432 4.61399,3.35486 0.09949,0.30956 0.04471,0.3701 -0.484993,0.53602 -0.728017,0.22802 -0.688103,0.24662 1.286429,0.59962 1.039455,0.18583 2.189624,0.52651 3.364112,0.99646 1.615599,0.64642 1.864174,0.70386 2.624266,0.60612 1.113259,-0.14318 2.153123,0.13625 3.349289,0.9 0.960914,0.61353 0.98461,0.61987 1.417362,0.37872 0.579883,-0.32313 0.771325,-0.11166 1.924669,2.12601 0.85932,1.66723 1.616351,2.67965 2.178743,2.91375 0.154892,0.0643 0.488434,-0.0858 0.80641,-0.36315 0.664578,-0.5797 0.964445,-0.58628 1.693492,-0.0371 0.661241,0.49805 1.906464,0.88441 4.167902,1.29318 0.87352,0.15789 2.087843,0.48765 2.698494,0.7328 1.217489,0.48875 1.354483,0.66633 1.349246,1.7491 -0.0058,1.1958 1.225841,3.02668 2.335754,3.47225 0.63052,0.25312 1.571999,0.11986 2.117018,-0.29964 0.296985,-0.22861 0.627941,-0.38032 0.735451,-0.33716 0.107501,0.0432 0.700668,0.89285 1.318139,1.88821 0.617462,0.99536 1.309976,1.99689 1.538915,2.22562 0.523383,0.52289 1.014206,0.49799 1.401912,-0.0712 0.355626,-0.5221 0.549638,-0.51121 1.495953,0.0839 1.451161,0.91265 2.119528,1.80509 4.065327,5.42826 1.486514,2.76799 2.525093,3.87138 2.859618,3.03808 0.301857,-0.75193 2.026316,-0.72707 3.582002,0.0516 1.296051,0.64874 2.00719,1.3973 2.506025,2.63785 0.611834,1.52158 1.163494,1.41584 2.561408,-0.49097 1.192113,-1.62608 1.550544,-1.70753 3.394401,-0.77135 1.126961,0.5722 1.257135,0.68563 1.564893,1.36358 0.184626,0.4067 0.474892,1.37666 0.645034,2.15547 0.703013,3.21792 1.032646,3.66581 3.341878,4.54076 2.400698,0.90966 2.778837,1.52449 3.123174,5.07853 0.116997,1.20759 0.33326,2.62172 0.480586,3.14252 0.147325,0.5208 0.299503,1.28313 0.338172,1.69406 0.08912,0.94712 0.487811,1.3159 1.647651,1.52411 0.47922,0.086 0.91067,0.20816 0.95878,0.27142 0.0481,0.0633 -0.0166,0.37424 -0.1438,0.69109 -0.25415,0.63309 -0.0297,1.33496 0.68744,2.14946 0.51472,0.5846 0.64062,0.62131 1.03025,0.30028 z m 9.17515,-32.24699 c 0.0987,-0.246 0.82493,-4.80468 1.05681,-6.63427 0.27411,-2.16286 0.94814,-4.55633 2.07912,-7.38291 0.86441,-2.16049 1.26328,-2.95979 2.24226,-4.49387 1.60943,-2.52201 1.78378,-2.85984 1.47834,-2.86453 -0.19501,-0.003 -0.17091,-0.13283 0.11809,-0.63649 0.19968,-0.348 0.50932,-0.79197 0.68809,-0.98659 0.17878,-0.19461 0.40166,-0.66644 0.49532,-1.0485 0.0936,-0.38206 0.22816,-0.92953 0.2989,-1.2166 0.1979,-0.803 0.0134,-3.1079 -0.30086,-3.75809 -0.15463,-0.31995 -0.44356,-0.76756 -0.64205,-0.9947 -0.32164,-0.36804 -0.42424,-0.40897 -0.94309,-0.37644 -1.2745,0.0807 -2.57611,1.75799 -3.87497,4.99344 -0.44821,1.1165 -0.6376,1.71124 -1.08171,3.39688 -0.54875,2.08283 -1.01117,6.39507 -1.10833,10.33569 -0.0168,0.67931 -0.0475,1.54902 -0.0683,1.93268 -0.0208,0.38365 -0.0516,1.25333 -0.0685,1.93262 -0.0521,2.10342 -0.12655,3.1313 -0.47669,6.57993 -0.10294,1.01396 -0.05,1.61429 0.10772,1.22142 z m 32.2313,10.2626 c 0.45788,0.0484 0.54019,-0.0913 0.82374,-1.39871 0.12801,-0.59025 0.20352,-0.68771 0.60552,-0.78152 0.25259,-0.059 0.5808,-0.0584 0.72935,0.001 0.14854,0.0596 0.71175,-0.0692 1.25158,-0.28621 l 0.98149,-0.39462 -0.61839,-0.16916 c -1.27457,-0.34864 -1.61271,-0.31349 -2.45272,0.25498 -0.68419,0.46302 -0.83916,0.65122 -0.95446,1.15924 -0.11784,0.51921 -0.23768,0.6571 -0.83288,0.95832 -0.68456,0.34645 -0.68959,0.35384 -0.3279,0.48155 0.202,0.0714 0.55964,0.14999 0.79467,0.17487 z m 7.4246,-7.3263 c 0.42812,-0.19565 1.23296,-0.667 1.78854,-1.04743 0.80991,-0.5546 1.16843,-0.68903 1.80861,-0.67818 1.12566,0.0191 1.38952,-0.15645 1.13041,-0.75195 -0.19949,-0.45846 -0.21698,-0.46744 -0.53328,-0.27367 -0.7362,0.45105 -2.19948,1.06103 -2.88213,1.20143 -0.40027,0.0823 -0.8897,0.30213 -1.08763,0.48844 -0.66625,0.62718 -1.2348,1.32397 -1.11842,1.37069 0.0635,0.0255 0.46579,-0.11371 0.89391,-0.30937 z"
       id="path50" />
    <path
       style="fill:#8d0000;stroke-width:0.165365"
       d="m 104.36706,260.72715 c 0.63428,-1.07719 1.69041,-3.55345 1.54111,-3.61339 -0.0849,-0.0341 -0.94911,0.0199 -1.92039,0.12003 -2.27573,0.23456 -2.75584,0.0671 -2.99181,-1.04357 -0.49784,-2.34332 -0.49484,-2.45768 0.14042,-5.35777 0.53451,-2.4401 0.56345,-3.26776 0.14329,-4.09795 -0.48833,-0.96491 -1.06955,-1.26088 -2.819851,-1.43595 -3.219652,-0.32203 -4.010058,-1.11906 -4.609076,-4.64766 -0.0974,-0.5738 -0.3182,-1.22227 -0.49065,-1.44105 -0.410628,-0.52094 -2.126087,-1.36434 -3.529307,-1.73517 -0.964984,-0.25502 -1.202915,-0.25253 -1.749943,0.0184 -0.632815,0.3134 -0.633475,0.31331 -1.419558,-0.20165 -1.080937,-0.70811 -2.208338,-1.13648 -3.695299,-1.40404 -1.664019,-0.29948 -2.972279,-0.23827 -4.105352,0.19206 l -0.927219,0.35214 -0.500506,-0.71149 c -0.745849,-1.06024 -1.041214,-1.74914 -1.821806,-4.24904 -0.733368,-2.34866 -1.563242,-4.25385 -1.914309,-4.39479 -0.110768,-0.0445 -0.325621,0.10152 -0.477443,0.32443 -0.505759,0.74251 -0.957178,0.77575 -2.340249,0.17233 -0.991261,-0.43253 -1.48172,-0.76488 -2.481187,-1.68166 -1.18303,-1.08513 -2.007444,-1.72583 -2.653199,-2.06195 -0.199428,-0.10377 -0.434158,-0.019 -0.74952,0.27061 -0.578294,0.53116 -1.067203,0.65832 -1.642775,0.42726 -0.861326,-0.34577 -1.467171,-1.5545 -1.486978,-2.96667 -0.0052,-0.36896 -0.166067,-0.82158 -0.380345,-1.06997 -0.7507,-0.87023 -4.422701,-3.17942 -6.273259,-3.94504 -0.64238,-0.26542 -0.720711,-0.2543 -1.22996,0.17864 -0.504558,0.42895 -0.580472,0.44087 -1.048038,0.16455 -0.277234,-0.16388 -1.165239,-1.0479 -1.973306,-1.96458 -1.856683,-2.10621 -2.181278,-2.32551 -2.953733,-1.9956 l -0.581663,0.24843 -0.95357,-1.02302 c -1.029953,-1.10496 -1.521097,-1.38684 -2.297924,-1.31886 -0.274287,0.024 -1.035643,-0.11692 -1.691908,-0.31316 -1.411843,-0.42218 -3.517649,-0.76733 -5.402511,-0.88549 -0.746969,-0.0468 -1.386164,-0.15242 -1.420442,-0.23464 -0.03425,-0.0822 0.408041,-0.32244 0.982926,-0.53383 0.93782,-0.34484 0.974845,-0.37402 0.360226,-0.28389 -0.925882,0.13576 -1.212931,-0.009 -2.418203,-1.21914 -1.475881,-1.48191 -2.508447,-2.25023 -3.608949,-2.6854 l -0.959201,-0.37968 0.08887,-0.89618 c 0.11537,-1.16341 -0.24626,-2.43249 -0.924911,-3.24582 -0.496836,-0.59544 -0.667894,-0.69222 -2.07846,-1.17599 -1.323721,-0.45404 -1.644846,-0.50499 -2.3138,-0.3674 -1.102305,0.22672 -1.119663,0.59539 -0.05472,1.16213 1.505152,0.80103 2.309762,2.27749 2.231302,4.09444 -0.02058,0.47644 -0.01356,0.92207 0.01558,0.99031 0.02916,0.0683 0.28789,0.0769 0.575028,0.0191 0.820421,-0.16484 2.780752,0.58064 4.468984,1.69945 1.765793,1.17024 2.556593,2.04328 2.393889,2.64285 -0.06467,0.2384 -0.104385,0.43719 -0.08822,0.44175 0.01624,0.004 0.621916,0.13025 1.346114,0.27931 0.724206,0.14908 2.04292,0.55943 2.930481,0.9119 1.400203,0.55564 1.731604,0.63049 2.503857,0.56255 1.189668,-0.10467 2.144117,0.14385 3.240273,0.84375 0.859697,0.54892 0.93337,0.56951 1.370177,0.38295 0.728795,-0.31127 1.01097,0.009 2.391997,2.71669 0.3839,0.75262 0.956295,1.60821 1.271981,1.9013 0.55272,0.51316 0.584468,0.52449 0.857291,0.30579 0.155846,-0.12489 0.555103,-0.34979 0.887293,-0.49974 0.508906,-0.22975 0.661518,-0.22566 0.969625,0.026 0.611061,0.49904 2.898808,1.28055 4.636027,1.5837 1.649928,0.28792 3.297526,0.8577 3.773643,1.30502 0.140723,0.13224 0.301247,0.73109 0.356706,1.33084 0.120461,1.3029 0.721796,2.39552 1.668795,3.03217 0.882514,0.59331 1.61448,0.58293 2.469121,-0.0349 0.355323,-0.25686 0.68313,-0.45214 0.728463,-0.43394 0.230648,0.0926 0.960928,1.08211 1.781715,2.41421 1.151959,1.86955 1.488035,2.239 1.912655,2.10252 0.17211,-0.0553 0.378322,-0.26345 0.458237,-0.46252 0.192991,-0.48073 0.674457,-0.4032 1.836816,0.29581 1.166927,0.70175 1.973018,1.62278 2.942773,3.36236 1.964226,3.52348 2.396642,4.25386 2.8093,4.74507 0.439096,0.52268 0.444312,0.52477 0.729419,0.29282 1.289434,-1.049 3.247577,-0.76808 5.09656,0.73119 0.721224,0.5848 0.999306,0.95457 1.369128,1.82045 0.560654,1.3127 0.781511,1.33698 1.705967,0.1875 0.952881,-1.18483 1.763771,-1.85444 2.308947,-1.90666 0.315283,-0.0302 0.945135,0.14857 1.79717,0.51006 1.219503,0.51737 1.339455,0.60626 1.705445,1.26271 0.216521,0.38838 0.605783,1.62087 0.865021,2.73887 0.259235,1.11801 0.62747,2.30217 0.818297,2.63148 0.323915,0.55898 0.459083,0.64432 2.035387,1.28518 2.739025,1.11358 3.232719,1.86636 3.531082,5.38419 0.092,1.08472 0.277162,2.367 0.411477,2.84951 0.134313,0.48251 0.312278,1.31572 0.395468,1.85158 0.1505,0.96934 0.15517,0.97577 0.91737,1.26586 0.42129,0.16051 1.05371,0.37409 1.40522,0.47501 l 0.6391,0.1835 -0.26036,0.51914 c -0.4223,0.842 -0.39333,1.22845 0.14406,1.92238 0.68509,0.88464 0.94119,0.962 1.27996,0.38667 z m 8.98582,-31.88345 c 0.0729,-0.18153 0.83296,-5.04545 1.02396,-6.55243 0.27725,-2.18766 0.95088,-4.56439 2.10855,-7.43946 0.92333,-2.29303 1.27596,-2.98892 2.41869,-4.77287 1.32662,-2.07102 1.33592,-2.09116 1.11453,-2.41275 -0.20192,-0.29332 -0.18328,-0.3717 0.19508,-0.82043 0.56794,-0.67357 1.42707,-2.88361 1.52381,-3.91987 0.26301,-2.81752 -0.95702,-4.84917 -2.47967,-4.12929 -0.93122,0.44025 -1.5734,1.39192 -2.72785,4.04248 -1.87476,4.30435 -2.42842,7.6533 -2.6525,16.04427 -0.0814,3.04987 -0.23631,5.71195 -0.45483,7.81824 -0.18836,1.81567 -0.2104,2.49243 -0.0698,2.14211 z m 31.97275,9.94856 c 0.38412,-0.0115 0.60403,-0.10717 0.60643,-0.26393 0.0214,-1.39627 0.5922,-2.01068 1.73664,-1.86943 0.70461,0.087 1.99071,-0.18446 1.89837,-0.40067 -0.0246,-0.0576 -0.45643,-0.17245 -0.95929,-0.25632 -0.82552,-0.1369 -0.99437,-0.0973 -1.73365,0.40667 -0.68249,0.46525 -0.84177,0.65849 -0.95538,1.15903 -0.11155,0.49148 -0.24301,0.65751 -0.72309,0.9133 -0.32271,0.17194 -0.56109,0.31638 -0.52972,0.32098 0.0312,0.005 0.32823,2.6e-4 0.65969,-0.01 z m 7.67597,-7.02599 c 0.4438,-0.22913 1.25626,-0.72256 1.80547,-1.09653 0.7825,-0.53279 1.14198,-0.66852 1.66137,-0.62727 0.36454,0.0289 0.8343,0.005 1.0439,-0.0538 0.37026,-0.10343 0.37411,-0.11932 0.13505,-0.55834 -0.22039,-0.40472 -0.27518,-0.43452 -0.52515,-0.2856 -0.73367,0.43714 -2.17974,1.03276 -2.83417,1.16736 -0.72306,0.14872 -1.04698,0.3756 -1.88452,1.31998 -0.55436,0.62507 -0.41378,0.65662 0.59807,0.13417 z"
       id="path48" />
    <path
       style="fill:#ffffe3;fill-opacity:1;stroke-width:1.01015"
       d="m 349.54564,975.6288 c -6.63623,-4.78547 -10.82468,-5.25763 -11.81011,-1.33136 -0.65058,2.59211 -0.71648,2.55914 -6.83777,-3.42141 -6.57425,-6.42308 -9.39855,-8.28729 -12.55537,-8.28729 -1.6414,0 -2.03467,-0.88085 -2.40909,-5.39586 -0.50533,-6.09361 -3.39308,-10.96965 -7.8666,-13.283 -1.56961,-0.81168 -6.1931,-1.98741 -10.27442,-2.61272 -4.08132,-0.62533 -11.17077,-2.42929 -15.75434,-4.0088 -6.61366,-2.27911 -8.33376,-2.57068 -8.33376,-1.41265 0,0.91865 -1.02906,1.45888 -2.77792,1.45831 -2.27778,-7.6e-4 -4.32378,-1.83264 -11.36421,-10.17497 -9.92794,-11.76379 -14.93673,-16.15057 -22.41649,-19.63271 -5.894,-2.74389 -14.31353,-3.34055 -19.85918,-1.40732 -3.69632,1.28854 -4.01398,2.87501 -1.1031,5.50932 l 2.07809,1.88065 -2.08954,0.77297 c -4.27213,1.58036 -17.38988,-2.50879 -22.52224,-7.02079 -1.33094,-1.17007 -1.76776,-3.12165 -1.76776,-7.89777 0,-7.16004 -1.15027,-10.95624 -4.36044,-14.39062 -3.19985,-3.42335 -10.00962,-6.2267 -15.12556,-6.2267 -3.23465,0 -4.96805,-0.57847 -6.36765,-2.125 -3.15624,-3.48762 -9.67602,-6.70367 -15.05753,-7.42752 -6.16867,-0.82973 -14.64733,-3.37309 -17.0142,-5.10379 -1.6531,-1.20878 -1.65442,-1.47786 -0.0241,-4.89664 1.50945,-3.16533 1.5577,-4.12483 0.38601,-7.67508 -0.7365,-2.23163 -2.08064,-4.72859 -2.98696,-5.54881 -2.85995,-2.58821 -8.88649,-4.60102 -11.94465,-3.98939 -2.78318,0.55664 -3.09351,0.23611 -6.61381,-6.83122 -5.50543,-11.05265 -5.97024,-11.49295 -11.86778,-11.24203 -4.835874,0.20574 -5.295562,-0.0234 -12.159655,-6.06092 -18.905046,-16.62854 -17.50648,-15.68789 -22.489754,-15.12621 -3.894706,0.43899 -4.894907,0.14567 -7.132164,-2.09158 -3.792905,-3.79291 -3.61138,-9.43038 0.428276,-13.30062 4.58259,-4.3904 3.925023,-7.17497 -2.174503,-9.20827 l -2.679579,-0.89325 3.179556,-6.566 c 4.03151,-8.32533 12.192778,-16.78021 17.083044,-17.69763 4.621234,-0.86695 16.755288,3.7362 20.69098,7.84928 2.547389,2.66221 2.791375,3.58788 2.791375,10.59039 0,4.91612 0.42044,7.81384 1.17012,8.0646 0.643564,0.21526 1.465884,-0.0872 1.827384,-0.67209 1.96401,-3.17783 13.2253,0.64001 21.10544,7.15524 l 3.8999,3.2244 -2.63721,1.38177 c -4.39943,2.3051 -3.26208,4.03785 3.17118,4.83129 3.1946,0.394 9.94651,2.03737 15.00422,3.65193 5.05772,1.61455 11.0346,2.93555 13.28195,2.93555 2.57965,0 6.19425,1.10896 9.8043,3.00796 3.14502,1.65437 6.58667,2.90443 7.64813,2.77792 1.43699,-0.17128 3.03426,1.68554 6.25366,7.26993 2.37805,4.12499 5.51281,8.37296 6.96612,9.43995 2.48433,1.82394 2.83173,1.84205 5.80837,0.30277 2.93285,-1.51664 3.40777,-1.51113 6.449,0.0748 1.80565,0.9416 8.46437,2.99918 14.79717,4.57239 6.3328,1.57322 12.12855,3.37028 12.87944,3.99347 0.7509,0.62319 1.37275,2.55476 1.38189,4.29238 0.0428,8.14605 8.58846,15.76133 15.91224,14.17994 2.07301,-0.44762 4.08978,-0.83754 4.4817,-0.86648 0.39193,-0.0289 2.89206,3.09239 5.55584,6.9363 6.12783,8.84259 7.47121,9.71431 11.45862,7.43549 3.03981,-1.73725 3.04291,-1.7364 7.11751,1.94476 2.24201,2.02552 7.18901,8.94431 10.99333,15.37508 6.69968,11.32506 10.3386,16.23799 12.02716,16.23799 0.44783,0 1.63699,-0.90914 2.64259,-2.02031 2.46278,-2.72134 5.17838,-2.54454 11.63688,0.75762 4.33436,2.2161 5.97275,3.79939 8.10114,7.82868 3.82787,7.24656 6.19001,7.24735 12.82406,0.004 l 5.17318,-5.64806 3.82383,1.59771 c 5.96,2.49024 7.13063,4.12424 9.56992,13.35794 1.25261,4.74166 3.22646,10.02939 4.38631,11.75049 2.0731,3.07628 3.14352,3.79298 11.08956,7.42504 5.93776,2.71411 7.67647,5.77772 8.35257,14.71724 0.57966,7.66454 0.56792,7.71211 -2.55548,10.34026 -1.90427,1.60234 -3.39408,4.00627 -3.78967,6.11495 -0.4506,2.4019 -1.20269,3.47464 -2.43605,3.47464 -2.27989,0 -3.71893,1.76333 -5.39873,6.61529 -0.73835,2.13268 -1.76014,3.97546 -2.27064,4.09508 -0.5105,0.1196 -3.39231,-1.55945 -6.40401,-3.73123 z"
       id="path905"
       transform="scale(0.26458333)" />
    <path
       style="fill:#ffffe3;fill-opacity:1;stroke-width:0.178571"
       d="m 579.60999,952.35278 c -0.88375,-0.19196 -1.99244,-0.83261 -5.08929,-2.94083 -4.75955,-3.24011 -5.53903,-3.49924 -6.99505,-2.32533 -0.42504,0.34269 -1.02935,0.75716 -1.3429,0.92104 -0.5338,0.27899 -0.62139,0.27837 -1.3757,-0.01 -1.50107,-0.57326 -4.33434,-3.30977 -6.29595,-6.08093 l -0.87984,-1.24296 -1.06421,-0.0224 c -0.75357,-0.0159 -1.58545,-0.21843 -2.84992,-0.694 -3.67381,-1.38174 -4.08157,-1.81745 -6.69592,-7.15487 -3.12836,-6.38681 -3.60112,-7.64879 -4.09339,-10.92706 -0.47655,-3.17364 -0.0405,-7.37675 0.86595,-8.34736 0.18925,-0.20264 0.77862,-1.38545 1.30971,-2.62846 1.10991,-2.59775 1.8318,-3.79921 2.81814,-4.69031 0.92651,-0.83704 1.39656,-0.92662 2.91479,-0.55549 1.51427,0.37017 2.06805,0.23053 2.61497,-0.65937 0.48722,-0.79276 0.66679,-1.51852 0.89584,-3.62052 0.21137,-1.93969 0.58336,-3.60631 0.8686,-3.89155 0.10714,-0.10714 1.68416,-0.19402 3.89425,-0.21455 3.18245,-0.0295 3.91873,-0.09 5.14277,-0.42209 1.90762,-0.51756 4.50832,-1.8274 5.54484,-2.79266 l 0.8413,-0.78345 -0.12189,-2.46571 c -0.13887,-2.80939 0.0129,-3.89816 0.76813,-5.51215 1.08992,-2.3291 3.57102,-4.35723 8.79213,-7.18697 3.57212,-1.93602 5.22597,-2.9231 6.45028,-3.84974 1.6393,-1.24074 2.53264,-1.54463 5.08756,-1.73066 4.76536,-0.34698 7.26629,-1.27177 11.32967,-4.18949 1.6787,-1.20539 2.39041,-1.48668 5.41513,-2.14022 0.78571,-0.16976 2.73992,-0.78147 4.34268,-1.35935 1.60276,-0.57789 3.15363,-1.0507 3.44637,-1.0507 1.11744,0 2.17659,0.94694 4.09454,3.66072 0.62471,0.88393 1.58147,2.15781 2.12612,2.83086 2.1834,2.69808 3.23317,4.16506 4.09262,5.71913 1.16228,2.10165 3.05749,6.26663 3.22563,7.08877 0.18615,0.91013 0.27192,1.00379 1.47594,1.61157 1.16283,0.587 1.81486,1.2018 2.65235,2.50091 0.4582,0.71077 0.55709,1.09543 0.72698,2.82771 l 0.19663,2.00503 -0.53676,0.56515 c -1.18547,1.24817 -2.18239,3.6854 -2.18239,5.33544 0,1.25161 -0.37772,2.01685 -1.20344,2.4381 -0.95454,0.48697 -1.78736,1.3005 -1.93548,1.89064 -0.32072,1.27787 0.95315,4.25281 2.83793,6.62756 l 1.14359,1.44087 -0.15201,1.14841 c -0.27514,2.07862 -2.00741,4.86692 -2.81381,4.52917 -0.15812,-0.0662 -0.66244,-0.16045 -1.12072,-0.20937 -0.82706,-0.0883 -0.83787,-0.0825 -1.46289,0.78751 -0.96327,1.3408 -2.83709,2.54493 -4.92379,3.16405 -1.3525,0.40129 -2.31213,0.36002 -3.69013,-0.15866 -2.04724,-0.77057 -2.33027,-0.65476 -3.27305,1.33929 -1.00332,2.12212 -0.64127,3.31808 1.47921,4.88625 1.66298,1.22983 2.17633,2.01611 2.14489,3.28525 -0.031,1.25078 -0.82077,2.8467 -1.67316,3.38094 -1.2259,0.76836 -1.61685,1.16973 -2.33196,2.39417 -0.82214,1.40769 -1.38484,1.84271 -3.42149,2.64512 -0.75815,0.29869 -2.40577,1.05787 -3.66138,1.68706 -3.05829,1.53251 -4.2958,1.89978 -6.40126,1.89978 -1.48605,0 -1.69243,0.0394 -1.86162,0.35553 -0.14369,0.2685 -0.12048,0.49049 0.0948,0.90682 0.23446,0.4534 0.25139,0.70839 0.0953,1.43608 -0.44437,2.07201 -1.55922,3.33356 -4.01333,4.54146 -1.97082,0.97001 -3.89419,1.47623 -6.16672,1.62302 -2.1955,0.14182 -3.88253,-0.12671 -5.92052,-0.9424 -0.89583,-0.35855 -1.6754,-0.57614 -1.75108,-0.48874 -0.075,0.0866 -0.26924,0.79252 -0.43158,1.56862 -0.43563,2.08263 -0.81013,2.50381 -1.99705,2.24599 z"
       id="path907"
       transform="scale(0.26458333)" />
  </g>
</svg>
